<svg xmlns="http://www.w3.org/2000/svg" width="32px" height="32px"  viewBox="0 0 24 24"><g>
                <path d="M18.438,20.937H5.562c-1.379,0-2.5-1.122-2.5-2.5V5.563c0-1.378,1.121-2.5,2.5-2.5h12.875
                    c1.379,0,2.5,1.122,2.5,2.5v12.873C20.938,19.815,19.816,20.937,18.438,20.937z M5.562,4.063c-0.827,0-1.5,0.673-1.5,1.5v12.873
                    c0,0.827,0.673,1.5,1.5,1.5h12.875c0.827,0,1.5-0.673,1.5-1.5V5.563c0-0.827-0.673-1.5-1.5-1.5H5.562z"/>
                <path d="M14.999,12.499h-2.5v2.5c0,0.64-1,0.64-1,0v-2.5h-2.5c-0.64,0-0.64-1,0-1h2.5v-2.5
                    c0-0.64,1-0.64,1,0v2.5h2.5C15.639,11.499,15.639,12.499,14.999,12.499z"/>
            </g></svg>